<svg xmlns="http://www.w3.org/2000/svg" width="50" height="50" viewBox="0 0 50 50">
  <g id="发送-已输入" transform="translate(-655 -1499)">
    <rect id="触控范围" width="50" height="50" transform="translate(655 1499)" fill="#fff" opacity="0"/>
    <path id="发送_1_" data-name="发送 (1)" d="M7.334,19.314,41.227,5.143a1.055,1.055,0,0,1,1.428,1.232L34.213,40.262a1.053,1.053,0,0,1-1.7.555l-7.33-6.128a1.051,1.051,0,0,0-1.42.066l-3.76,3.77a1.054,1.054,0,0,1-1.8-.746V29.81a1.059,1.059,0,0,1,.308-.748L33.807,13.72,15.755,27.307a1.051,1.051,0,0,1-1.307-.034L7.065,21.1a1.059,1.059,0,0,1,.269-1.787Z" transform="translate(655.314 1500.938)" fill="#508cff"/>
  </g>
</svg>
