<svg xmlns="http://www.w3.org/2000/svg" width="50" height="50" viewBox="0 0 50 50">
  <g id="发送-未输入" transform="translate(-655 -1499)">
    <rect id="触控范围" width="50" height="50" transform="translate(655 1499)" fill="#fff" opacity="0"/>
    <path id="发送" d="M10.047,80.7a2.107,2.107,0,0,1-.936-.353l-7.6-6.28-3.8,3.752c-.47.412-1.215.906-1.786.654a1.631,1.631,0,0,1-.854-1.513l.18-7.287a1.623,1.623,0,0,1,.414-1.11L9.892,53.429a.779.779,0,0,1,1.1,0,.789.789,0,0,1,0,1.11L-3.233,69.653l-.18,7.333L.43,72.746a1.58,1.58,0,0,1,1.886-.185l7.6,6.424,8.178-32.614L-14.589,60.03l7.048,5.7a.794.794,0,0,1,.218,1.1.785.785,0,0,1-1.092.22L-15.44,61.44a1.762,1.762,0,0,1-.855-1.41,1.7,1.7,0,0,1,1.016-1.364l32.66-13.728a1.9,1.9,0,0,1,1.858.017,1.716,1.716,0,0,1,.4,1.74L11.5,79.286a1.744,1.744,0,0,1-.812,1.3,1.51,1.51,0,0,1-.644.116Z" transform="translate(678.296 1461.297)"/>
  </g>
</svg>
